# Blender v2.79 (sub 0) OBJ File: ''
# www.blender.org
mtllib untitled.mtl
o Pedestal
v 0.500000 0.200000 0.866025
v -0.500000 0.200000 0.866025
v -0.500000 -0.000000 0.866025
v 0.500000 -0.000000 0.866025
v -1.000000 0.200000 0.000000
v -1.000000 -0.000000 0.000000
v -0.500000 0.200000 -0.866025
v -0.500000 0.000000 -0.866025
v 0.500000 0.200000 -0.866025
v 0.500000 0.000000 -0.866025
v 1.000000 0.200000 0.000000
v 1.000000 0.000000 0.000000
vt 0.479507 0.112122
vt 0.103228 0.273221
vt 0.000097 0.216478
vt 0.475373 0.000097
vt 0.096323 0.672672
vt 0.000097 0.737915
vt 0.451935 0.884291
vt 0.457170 0.999903
vt 0.821394 0.699068
vt 0.922869 0.754649
vt 0.843663 0.300446
vt 0.940525 0.232752
vn 0.6547 -0.0001 0.7559
vn -0.6547 -0.0000 0.7559
vn -0.6547 -0.0001 0.7559
vn 0.6547 -0.0000 0.7559
vn -1.0000 0.0000 -0.0000
vn -0.6547 0.0001 -0.7559
vn -0.6547 0.0000 -0.7559
vn 0.6547 0.0000 -0.7559
vn 0.6547 0.0001 -0.7559
vn 1.0000 -0.0000 -0.0000
vn 0.0000 1.0000 0.0000
usemtl Material.001
s 1
f 1/1/1 2/2/2 3/3/3 4/4/4
f 2/2/2 5/5/5 6/6/5 3/3/3
f 5/5/5 7/7/6 8/8/7 6/6/5
f 7/7/6 9/9/8 10/10/9 8/8/7
f 9/9/8 11/11/10 12/12/10 10/10/9
f 11/11/10 1/1/1 4/4/4 12/12/10
f 1/1/11 11/11/11 9/9/11
f 1/1/11 9/9/11 7/7/11
f 1/1/11 7/7/11 5/5/11
f 5/5/11 2/2/11 1/1/11
